<svg _ngcontent-pgd-c64="" width="250" height="68" viewBox="0 0 250 68" fill="none" xmlns="http://www.w3.org/2000/svg" role="img"><g _ngcontent-pgd-c64="" clip-path="url(#clip0_57_548)"><path _ngcontent-pgd-c64="" d="M153.362 22.4463V22.1158H153.296V21.9836H153.23V21.8514H153.164V21.7853H153.125V21.7192L153.059 21.6476L152.993 21.5815L152.926 21.5154H152.86V21.4493H152.728V21.3832H152.574L152.507 21.3171H151.912L151.84 21.3832H151.708V21.4493H151.576V21.5154H151.509L151.449 21.5815L151.377 21.6476V21.7192H151.311V21.7853H151.245V21.8514H151.184V21.9836H151.112V22.1158L151.046 22.1819V22.9145L151.112 22.9806V23.1128H151.184V23.2726H151.245V23.3387L151.311 23.4048L151.377 23.4709L151.449 23.5425H151.509V23.6086H151.576V23.6747H151.708V23.7353H151.84V23.8069H151.912V23.8234H151.84V23.895H151.774V23.9611H151.708V24.0272H151.647V24.0933H151.576L151.509 24.1594H151.471V24.22H151.333V24.2861H151.206V24.3742H151.068L151.002 24.4403H150.743V24.5064H149.552L149.48 24.4403H149.348V24.3742H149.216C149.181 24.336 149.134 24.3107 149.083 24.3026C149.048 24.2667 149.001 24.2435 148.951 24.2365C148.914 24.203 148.868 24.1818 148.819 24.176L148.752 24.1098C148.702 24.1029 148.656 24.0796 148.62 24.0437C148.554 23.9776 148.488 23.9776 148.488 23.9116C148.488 23.8455 148.422 23.8399 148.355 23.8399L148.223 23.7077L148.157 23.6471C148.091 23.581 148.025 23.5811 148.025 23.515L147.892 23.3772C147.856 23.3416 147.833 23.2952 147.826 23.2451C147.792 23.2425 147.76 23.2278 147.735 23.2035C147.711 23.1792 147.696 23.1471 147.694 23.1128C147.627 23.1128 147.628 23.0467 147.561 22.9806C147.525 22.945 147.502 22.8986 147.495 22.8485C147.429 22.7824 147.429 22.7162 147.363 22.7162C147.297 22.7162 147.297 22.5785 147.297 22.5124L147.164 22.3802C147.164 22.3141 147.098 22.248 147.098 22.1819C147.098 22.1158 147.032 22.0497 146.96 21.9836C146.889 21.9175 146.894 21.8514 146.894 21.7853C146.894 21.7192 146.828 21.6476 146.828 21.5815C146.828 21.5154 146.762 21.4493 146.696 21.3832C146.7 21.3474 146.696 21.3109 146.685 21.2766C146.674 21.2423 146.655 21.211 146.629 21.1849C146.629 21.1188 146.563 20.9866 146.563 20.9205C146.563 20.8544 146.497 20.7883 146.497 20.7167C146.452 20.6381 146.429 20.5486 146.431 20.4578C146.378 20.3803 146.355 20.2866 146.365 20.1934C146.299 20.1218 146.299 20.0612 146.299 19.929C146.246 19.8492 146.223 19.754 146.232 19.6591C146.18 19.5816 146.156 19.4879 146.166 19.3947C146.113 19.2932 146.09 19.1785 146.1 19.0642C146.048 18.9844 146.025 18.8892 146.034 18.7943C146.034 18.6621 145.968 18.596 145.968 18.4638C145.972 18.35 145.95 18.2367 145.902 18.1333V17.7973C145.842 17.6983 145.818 17.5813 145.835 17.4668C145.807 17.3581 145.785 17.2477 145.769 17.1363V16.8003L145.703 16.4037V16.0071C145.649 15.8823 145.626 15.7461 145.637 15.6105V14.8118H145.571V14.2114C145.528 10.8011 145.656 7.39086 145.957 3.99352H134.807C132.751 3.86132 131.422 2.07112 130.628 0.13771C130.562 0.0716103 130.562 0.0716157 130.562 0.00551605C129.768 2.07113 128.113 3.86132 126.321 3.99352H115.255C116.578 18.3151 114.792 23.1845 112.007 24.3742C111.941 24.4403 111.875 24.4403 111.742 24.4403C110.353 24.6386 109.686 24.2365 109.289 23.7794C109.552 23.7052 109.785 23.5485 109.953 23.3323C110.12 23.1162 110.214 22.852 110.22 22.5785C110.232 22.4151 110.209 22.2512 110.154 22.0968C110.099 21.9425 110.013 21.8011 109.901 21.6814C109.789 21.5617 109.654 21.4663 109.503 21.4011C109.353 21.3358 109.191 21.3021 109.027 21.3021C108.863 21.3021 108.7 21.3358 108.55 21.4011C108.4 21.4663 108.264 21.5617 108.152 21.6814C108.04 21.8011 107.954 21.9425 107.899 22.0968C107.844 22.2512 107.822 22.4151 107.833 22.5785V22.7218C107.876 23.0313 107.989 23.3269 108.164 23.5866C108.445 24.0529 108.844 24.4382 109.319 24.7047C109.795 24.9712 110.331 25.1098 110.877 25.1068C110.943 25.1068 111.014 25.173 111.141 25.173C114.124 25.3768 117.51 21.6532 118.569 11.6941C118.966 7.77773 121.155 6.11972 124.601 6.11972H128.18V18.9981C127.981 18.9981 127.849 19.0697 127.628 19.0697H120.041C120.359 22.158 120.383 25.2695 120.113 28.3623C119.776 31.3478 118.85 32.6808 117.791 33.2096C117.755 33.2051 117.719 33.2087 117.684 33.2201C117.65 33.2316 117.619 33.2505 117.593 33.2757C116.595 33.4134 116.131 33.1435 115.867 32.7248C116.055 32.6932 116.225 32.595 116.346 32.4484C116.468 32.3018 116.532 32.1164 116.528 31.9261C116.524 31.6996 116.432 31.4834 116.272 31.3232C116.111 31.163 115.895 31.0711 115.668 31.0668C115.205 31.0668 114.874 31.6617 114.874 31.9261V31.9922C114.873 32.2231 114.944 32.4485 115.078 32.6367C115.287 32.9619 115.57 33.2334 115.903 33.4296C116.236 33.6257 116.611 33.7409 116.997 33.7659H117.135C118.789 33.832 120.51 32.3007 121.546 28.3843C121.884 27.0981 122.13 25.7893 122.28 24.4679C122.544 21.7468 124.066 20.546 126.454 20.546H128.18V46.6443C128.18 49.8997 127.849 51.9598 127.253 52.8907C126.255 54.3504 124.667 55.094 122.291 55.094H120.366V56.686H140.713V55.0555H138.86C136.655 55.0555 135.083 54.5047 134.085 53.2598C133.357 52.395 132.982 50.1366 132.982 46.6168V20.5184H135.37L135.502 20.5845H135.899L135.965 20.6561H136.164L136.23 20.7167H136.362C136.372 20.7167 136.381 20.7186 136.389 20.7222C136.397 20.7259 136.405 20.7313 136.411 20.738C136.417 20.7447 136.422 20.7527 136.425 20.7614C136.428 20.77 136.429 20.7792 136.429 20.7883H136.583L136.649 20.8544H136.715C136.781 20.9205 136.781 20.9205 136.848 20.9205L136.914 20.9866H136.985C137.003 20.9866 137.02 20.9936 137.032 21.006C137.045 21.0184 137.052 21.0352 137.052 21.0527C137.118 21.0527 137.118 21.0527 137.184 21.1188H137.25L137.316 21.1849L137.382 21.251H137.449L137.515 21.3171L137.581 21.3832L137.647 21.4493L137.713 21.5154L137.779 21.5815L137.846 21.6476L137.912 21.7192C137.912 21.7368 137.919 21.7536 137.931 21.766C137.944 21.7784 137.96 21.7853 137.978 21.7853L138.044 21.8514V21.9175C138.053 21.9175 138.061 21.9193 138.069 21.9226C138.077 21.9259 138.085 21.9308 138.091 21.9369C138.097 21.943 138.102 21.9503 138.105 21.9583C138.109 21.9664 138.11 21.975 138.11 21.9836L138.176 22.0497C138.176 22.0673 138.183 22.0841 138.196 22.0965C138.208 22.1089 138.225 22.1158 138.243 22.1158C138.243 22.1819 138.243 22.1819 138.309 22.248V22.3141L138.375 22.3802C138.375 22.4463 138.375 22.4463 138.441 22.5124V22.5785C138.507 22.5785 138.507 22.6501 138.507 22.6501C138.507 22.6501 138.507 22.7162 138.573 22.7823V22.8485L138.64 22.9806V23.0467L138.706 23.1789V23.2726L138.772 23.4048V23.4709L138.838 23.6086V23.8069L138.904 23.9391V24.3302L138.97 24.4679V24.7323C138.986 24.8437 139.008 24.954 139.037 25.0628V25.3988C139.089 25.4763 139.113 25.57 139.103 25.6632C139.103 25.7954 139.169 25.8615 139.169 25.9937V26.2636C139.215 26.3439 139.238 26.4354 139.235 26.528C139.235 26.6602 139.301 26.7263 139.301 26.8585C139.301 26.9907 139.367 26.9907 139.367 27.1229C139.366 27.217 139.389 27.31 139.434 27.3928V27.6517C139.459 27.6788 139.478 27.7111 139.489 27.7463C139.501 27.7815 139.504 27.8188 139.5 27.8555C139.55 27.9345 139.575 28.0266 139.572 28.1199C139.638 28.186 139.638 28.2521 139.638 28.3843C139.663 28.4103 139.682 28.4416 139.693 28.476C139.705 28.5103 139.708 28.5467 139.704 28.5826C139.765 28.6487 139.765 28.7148 139.765 28.847C139.789 28.8743 139.808 28.9066 139.82 28.9417C139.831 28.9769 139.835 29.0141 139.831 29.0508C139.858 29.0758 139.878 29.1068 139.89 29.1413C139.903 29.1758 139.907 29.2127 139.902 29.2491C139.926 29.2762 139.943 29.3078 139.953 29.3419C139.964 29.376 139.967 29.4119 139.963 29.4474C140.013 29.5264 140.038 29.6185 140.035 29.7118C140.058 29.7401 140.075 29.7726 140.086 29.8076C140.096 29.8426 140.099 29.8793 140.095 29.9156C140.167 29.9817 140.167 30.0478 140.228 30.1139C140.232 30.1647 140.256 30.2119 140.294 30.2461C140.294 30.3122 140.366 30.3783 140.366 30.4444C140.366 30.5105 140.426 30.5766 140.426 30.6427C140.464 30.679 140.488 30.728 140.492 30.7804C140.559 30.841 140.559 30.9071 140.63 30.9732C140.702 31.0393 140.63 31.1109 140.691 31.1109C140.752 31.1109 140.763 31.2431 140.763 31.3037C140.763 31.3643 140.829 31.3698 140.829 31.4359C140.829 31.502 140.889 31.5736 140.956 31.5736C140.963 31.6237 140.986 31.6701 141.022 31.7058C141.03 31.7567 141.055 31.8034 141.093 31.838C141.154 31.9041 141.154 31.9702 141.226 31.9702C141.233 32.0203 141.256 32.0667 141.292 32.1024C141.299 32.1525 141.322 32.1989 141.358 32.2346L141.485 32.3668C141.524 32.4028 141.55 32.4516 141.557 32.5045C141.617 32.5045 141.617 32.5706 141.689 32.5706C141.761 32.5706 141.689 32.6367 141.75 32.7028L141.821 32.7689L141.948 32.9011C141.948 32.9011 142.02 32.9011 142.02 32.9672C142.02 33.0333 142.086 33.0333 142.152 33.0333L142.218 33.0994C142.284 33.1655 142.284 33.1655 142.351 33.1655C142.351 33.183 142.358 33.1998 142.37 33.2122C142.382 33.2246 142.399 33.2316 142.417 33.2316C142.483 33.2977 142.483 33.2977 142.549 33.2977C142.548 33.3068 142.549 33.316 142.552 33.3247C142.555 33.3334 142.56 33.3413 142.566 33.348C142.573 33.3548 142.58 33.3601 142.589 33.3638C142.597 33.3675 142.606 33.3693 142.615 33.3693C142.681 33.4354 142.681 33.4354 142.748 33.4354L142.814 33.5015C142.831 33.5015 142.848 33.5085 142.861 33.5209C142.873 33.5333 142.88 33.5501 142.88 33.5676H143.012L143.078 33.6337H143.2C143.217 33.6337 143.234 33.6407 143.247 33.6531C143.259 33.6655 143.266 33.6823 143.266 33.6998H143.597C143.597 33.7173 143.604 33.7342 143.616 33.7465C143.629 33.7589 143.645 33.7659 143.663 33.7659H144.325L144.391 33.6998H144.793V33.6337H144.992V33.5676H145.124L145.19 33.5015H145.256L145.323 33.4354H145.405L145.472 33.3693H145.538V33.2977H145.604V33.1875H145.67V33.1214H145.736L145.802 33.0553L145.869 32.9892L145.935 32.9231L146.001 32.857V32.7909H146.067V32.7248H146.133V32.6367H146.199V32.5706L146.266 32.5045V32.3668H146.332V32.0859H146.398V31.7554H146.332V31.535H146.266V31.3973H146.199V31.3312H146.133V31.2651H146.067V31.2045H146.001L145.935 31.1329H145.869V31.0723H145.273V31.1329H145.141V31.2045H145.075L145.008 31.2651L144.942 31.3312V31.3973H144.876V31.4689H144.81V31.6672H144.744V32.2181H144.81V32.3503H144.876V32.488H144.942V32.5541H145.008V32.6367H145.075V32.7028H145.207V32.7689H145.339V32.835L145.273 32.9011L145.207 32.9672L145.141 33.0333H145.075V33.0994H145.008L144.942 33.1655H144.81V33.1875H144.611V33.2536H143.613V33.1875H143.481C143.463 33.1875 143.447 33.1806 143.434 33.1682C143.422 33.1558 143.415 33.139 143.415 33.1214C143.349 33.1214 143.349 33.1214 143.282 33.0553H143.2L143.134 32.9892C143.067 32.9892 143.067 32.9231 143.001 32.9231L142.935 32.857C142.918 32.857 142.901 32.8501 142.888 32.8377C142.876 32.8253 142.869 32.8085 142.869 32.7909C142.851 32.7909 142.835 32.784 142.822 32.7716C142.81 32.7592 142.803 32.7424 142.803 32.7248C142.737 32.7248 142.737 32.6587 142.67 32.6587C142.665 32.6497 142.657 32.6422 142.648 32.6367C142.648 32.6192 142.641 32.6024 142.629 32.59C142.617 32.5776 142.6 32.5706 142.582 32.5706C142.582 32.5045 142.516 32.5045 142.516 32.4329L142.45 32.3668C142.384 32.3007 142.384 32.3007 142.384 32.2346C142.366 32.2346 142.349 32.2276 142.337 32.2152C142.324 32.2028 142.318 32.186 142.318 32.1685L142.185 32.0363C142.18 31.9855 142.157 31.9383 142.119 31.9041C142.119 31.8866 142.112 31.8698 142.1 31.8574C142.087 31.845 142.07 31.838 142.053 31.838C142.053 31.7719 142.053 31.7058 141.981 31.7058C141.909 31.7058 141.981 31.6397 141.915 31.5736V31.4359C141.854 31.3698 141.854 31.3698 141.854 31.3037C141.834 31.2878 141.817 31.2679 141.805 31.2451C141.792 31.2223 141.785 31.1973 141.783 31.1715C141.759 31.1448 141.741 31.1132 141.731 31.079C141.72 31.0448 141.717 31.0087 141.722 30.9732C141.684 30.9386 141.658 30.8919 141.65 30.841C141.654 30.8056 141.651 30.7697 141.64 30.7357C141.63 30.7016 141.613 30.67 141.59 30.6427C141.584 30.5909 141.558 30.5435 141.518 30.5105V30.3122C141.48 30.278 141.457 30.2308 141.452 30.18C141.456 30.1446 141.453 30.1086 141.442 30.0745C141.432 30.0404 141.414 30.0088 141.391 29.9817V29.7834C141.366 29.7561 141.347 29.7238 141.336 29.6887C141.325 29.6535 141.321 29.6163 141.325 29.5796C141.329 29.5437 141.326 29.5073 141.314 29.473C141.303 29.4386 141.284 29.4073 141.259 29.3813V29.1169C141.263 29.0805 141.259 29.0436 141.247 29.0091C141.234 28.9746 141.214 28.9436 141.187 28.9186V28.7148C141.187 28.5826 141.187 28.5165 141.126 28.4504V27.9877L141.055 27.7178V27.167C141.001 27.0655 140.978 26.9507 140.989 26.8365V26.5776C140.93 24.0737 141.02 21.5685 141.259 19.0753H133.545C133.346 19.0753 133.148 19.0037 132.949 19.0037V6.11422H137.592L137.724 6.18032H138.055L138.188 6.2409H138.452L138.585 6.30702H138.717L138.849 6.37861C138.915 6.37861 138.915 6.37862 138.982 6.43921H139.114L139.246 6.51082L139.379 6.57692H139.511C139.511 6.64302 139.583 6.64302 139.649 6.64302L139.715 6.70911L139.842 6.77521C139.913 6.77521 139.913 6.77522 139.974 6.84132C140.035 6.90742 140.046 6.84132 140.046 6.90742C140.046 6.97352 140.106 6.90742 140.178 6.97352L140.305 7.03961L140.377 7.10571L140.503 7.17181L140.57 7.23792L140.702 7.30402C140.702 7.37563 140.774 7.37563 140.774 7.44173C140.774 7.50783 140.84 7.50782 140.9 7.50782L140.967 7.57392L141.104 7.70611C141.104 7.70611 141.104 7.77221 141.165 7.77221C141.226 7.77221 141.237 7.83832 141.237 7.90442L141.303 7.97052L141.43 8.10271C141.43 8.12024 141.437 8.13706 141.449 8.14946C141.462 8.16186 141.478 8.16881 141.496 8.16881L141.568 8.30652C141.568 8.37262 141.628 8.37263 141.628 8.43873C141.667 8.47332 141.692 8.51997 141.7 8.57092L141.761 8.63702L141.832 8.76923C141.893 8.83533 141.893 8.83532 141.893 8.90142L141.959 9.03362C141.959 9.09972 142.031 9.09972 142.031 9.17132C142.031 9.24293 142.097 9.23744 142.097 9.30354L142.163 9.43022L142.229 9.56241V9.70012L142.295 9.89843L142.362 10.0251V10.1628L142.428 10.3611L142.494 10.4933V10.6035C142.494 10.6696 142.56 10.7357 142.56 10.8018V11.0056L142.626 11.1378V11.4683L142.692 11.6666V12.1348C142.747 12.2825 142.77 12.4403 142.759 12.5975C142.817 12.7444 142.84 12.9029 142.825 13.0602C142.825 13.1979 142.891 13.3301 142.891 13.4623C142.891 13.5945 142.957 13.7267 142.957 13.925C142.957 13.9911 143.023 14.1233 143.023 14.1894V14.3216C143.023 14.4538 143.089 14.5915 143.089 14.7237C143.143 14.8486 143.166 14.9847 143.156 15.1203C143.21 15.247 143.233 15.385 143.222 15.5224C143.288 15.6546 143.288 15.7868 143.354 15.919C143.344 16.0332 143.367 16.148 143.42 16.2495C143.42 16.3817 143.486 16.5194 143.486 16.6516C143.486 16.7838 143.553 16.8444 143.619 16.9766C143.601 17.0929 143.625 17.2117 143.685 17.3126C143.685 17.4448 143.751 17.577 143.751 17.7092C143.751 17.8414 143.817 17.9075 143.883 17.9736C143.899 18.0869 143.921 18.1991 143.95 18.3096C144.016 18.4418 144.016 18.574 144.082 18.6401C144.148 18.7062 144.148 18.8384 144.148 18.9706C144.148 19.1028 144.214 19.1744 144.28 19.2405C144.347 19.3066 144.347 19.4388 144.347 19.571C144.347 19.7032 144.413 19.7032 144.485 19.8354C144.556 19.9676 144.551 20.0392 144.617 20.0998C144.683 20.1604 144.683 20.3036 144.683 20.3697C144.724 20.4008 144.757 20.4408 144.78 20.4866C144.803 20.5324 144.815 20.5829 144.815 20.6341C144.882 20.6947 144.882 20.7663 144.948 20.8985C145.014 21.0307 145.014 21.0307 145.08 21.0968C145.146 21.1629 145.146 21.2951 145.146 21.3612C145.146 21.4273 145.279 21.4934 145.279 21.5595C145.279 21.6256 145.345 21.6972 145.411 21.7633C145.477 21.8294 145.477 21.9616 145.543 22.0277C145.609 22.0938 145.609 22.1599 145.676 22.226C145.742 22.2921 145.742 22.3582 145.808 22.4243C145.874 22.4904 145.874 22.5565 145.94 22.6281C146.006 22.6997 146.006 22.6942 146.073 22.7603C146.139 22.8264 146.139 22.8925 146.205 22.9586C146.207 22.9928 146.222 23.025 146.246 23.0493C146.271 23.0735 146.303 23.0883 146.337 23.0908C146.337 23.1569 146.403 23.223 146.47 23.2891C146.536 23.3552 146.536 23.3552 146.602 23.4213C146.603 23.4565 146.617 23.49 146.642 23.5154C146.666 23.5408 146.699 23.5563 146.734 23.559C146.734 23.6251 146.8 23.6857 146.867 23.7573L147.004 23.8895C147.071 23.8895 147.071 23.9556 147.137 23.9556C147.203 23.9556 147.203 24.0878 147.269 24.0878L147.401 24.2145C147.452 24.2215 147.498 24.2447 147.534 24.2806C147.6 24.3522 147.666 24.3522 147.666 24.4183C147.716 24.4253 147.763 24.4485 147.798 24.4844H147.865C147.865 24.5505 147.931 24.5505 147.997 24.6166C148.048 24.6213 148.095 24.6449 148.129 24.6827C148.165 24.7186 148.211 24.7418 148.262 24.7488C148.328 24.7488 148.328 24.8149 148.394 24.8149C148.46 24.8149 148.46 24.881 148.526 24.881C148.592 24.881 148.659 24.881 148.659 24.9471H148.857C148.857 25.0132 148.923 25.0132 148.989 25.0132H149.122C149.188 25.0793 149.188 25.0793 149.254 25.0793H149.524C149.556 25.1172 149.602 25.141 149.651 25.1454H150.203V25.0793H150.919L150.986 25.0132H151.19L151.25 24.9471H151.383L151.471 24.9251H151.531L151.598 24.859H151.73V24.7929H151.862V24.7268H151.934L152 24.6607H152.022L152.088 24.5946L152.155 24.5285H152.221V24.4624H152.287V24.3742H152.419V24.3026H152.485V24.2365H152.574V24.176H152.64V24.1098H152.706V24.0437H152.772V23.9776H152.838V23.9116H152.904V23.7794H152.971V23.7077L153.037 23.6471L153.103 23.581V23.515H153.169V23.3772H153.235V23.1789H153.301V23.0467H153.368V22.4463H153.362Z" fill="#D2AB66"></path><path _ngcontent-pgd-c64="" d="M11.9929 40.0454H8.74513V53.1276H4.37252V40.0454H1.05859V36.3934H11.9929V40.0454Z" fill="#10347F"></path><path _ngcontent-pgd-c64="" d="M16.9615 48.4565H13.0576V53.1496H16.9615V48.4565Z" fill="#10347F"></path><path _ngcontent-pgd-c64="" d="M28.9604 40.0454H25.652V53.1276H21.2739V40.0454H17.96V36.3934H28.9604V40.0454Z" fill="#10347F"></path><path _ngcontent-pgd-c64="" d="M33.8336 48.4565H29.9297V53.1496H33.8336V48.4565Z" fill="#10347F"></path><path _ngcontent-pgd-c64="" d="M43.0761 44.6283C43.0761 42.4249 43.01 41.0424 42.7453 40.442C42.4806 39.8416 42.0174 39.5772 41.1573 39.5772H40.2971V50.0044H41.2234C41.5692 50.0311 41.9139 49.9407 42.202 49.7479C42.49 49.555 42.7047 49.2709 42.8115 48.9413C43.01 48.2803 43.0761 46.8867 43.0761 44.6283ZM47.5866 44.3639C47.5866 47.2833 47.2502 49.404 46.6547 50.737C45.9269 52.3289 44.5318 53.1276 42.613 53.1276H35.9189V36.3934H42.2104C44.1348 36.3934 45.5188 36.8561 46.2577 37.9192C47.1179 39.0484 47.5866 41.1746 47.5866 44.3639Z" fill="#10347F"></path><path _ngcontent-pgd-c64="" d="M59.3807 53.1276H49.3066V36.3934H59.1822V39.9793H53.6847V42.8987H58.8513V46.2863H53.6847V49.6078H59.3807V53.1276Z" fill="#10347F"></path><path _ngcontent-pgd-c64="" d="M73.5689 36.3934L69.9903 53.1276H64.355L60.7764 36.3934H65.4798L67.2057 49.6078H67.2719L68.9923 36.3934H73.5689Z" fill="#10347F"></path><path _ngcontent-pgd-c64="" d="M80.1238 46.9583L78.9328 39.7975L77.6756 46.9583H80.1238ZM85.693 53.1331H81.1825L80.587 50.3459H77.2124L76.6114 53.1331H72.1671L76.2144 36.3989H81.7284L85.693 53.1331Z" fill="#10347F"></path><path _ngcontent-pgd-c64="" d="M97.5596 48.2142C97.5596 50.1366 96.9585 51.5192 95.8337 52.395C94.9073 53.1276 93.4461 53.4581 91.5217 53.4581C89.7352 53.4581 88.4118 53.1276 87.5516 52.5327C86.5536 51.6679 86.0242 50.2027 86.0242 48.082H90.2645C90.2374 48.6201 90.3046 49.1588 90.463 49.6739C90.5284 49.9347 90.6835 50.1643 90.9013 50.3224C91.119 50.4805 91.3855 50.5571 91.654 50.5387C92.5859 50.5387 93.0491 49.9878 93.0491 48.9468C93.0599 48.5688 92.9662 48.1951 92.7785 47.8667C92.5908 47.5383 92.3162 47.2678 91.9849 47.085C91.3232 46.8206 90.5953 46.4846 89.9337 46.1541C89.0283 45.7652 88.182 45.2516 87.4193 44.6283C87.0094 44.2235 86.6906 43.736 86.4843 43.1984C86.278 42.6608 86.1888 42.0854 86.2227 41.5106C86.2227 37.8531 88.0148 36.0629 91.5879 36.0629C93.7935 36.0629 95.3043 36.6137 96.1645 37.5887C96.8262 38.3819 97.1625 39.5772 97.1625 41.1746H92.9829C93.1153 39.7149 92.6521 38.9712 91.7202 38.9712C90.7883 38.9712 90.463 39.4339 90.463 40.4309C90.4539 40.7497 90.5212 41.066 90.6593 41.3534C90.7974 41.6409 91.0024 41.8912 91.257 42.0834C91.7725 42.4183 92.3283 42.6866 92.9112 42.8821C94.3008 43.4826 95.0341 43.8131 95.1168 43.8131C95.8153 44.1607 96.409 44.6872 96.8372 45.3388C97.3534 46.2065 97.6044 47.2059 97.5596 48.2142Z" fill="#10347F"></path><path _ngcontent-pgd-c64="" d="M110.016 48.2142C110.016 50.1366 109.42 51.5192 108.296 52.395C107.369 53.1276 105.908 53.4581 103.984 53.4581C102.197 53.4581 100.868 53.1276 100.008 52.5327C99.0154 51.6679 98.4861 50.2027 98.4861 48.082H102.726C102.719 48.6156 102.763 49.1487 102.859 49.6739C102.94 49.9253 103.099 50.1444 103.313 50.2997C103.527 50.4551 103.785 50.5388 104.05 50.5387C105.048 50.5387 105.511 49.9878 105.511 48.9468C105.507 48.5716 105.407 48.2037 105.221 47.8779C105.035 47.552 104.768 47.2791 104.447 47.085C103.785 46.8206 103.057 46.4846 102.396 46.1541C101.488 45.7663 100.64 45.2526 99.8756 44.6283C99.4676 44.2224 99.1504 43.7346 98.9451 43.1971C98.7398 42.6597 98.651 42.0848 98.6846 41.5106C98.6846 37.8531 100.471 36.0629 104.05 36.0629C106.255 36.0629 107.766 36.6137 108.626 37.5887C109.288 38.3819 109.619 39.5772 109.619 41.1746H105.445C105.577 39.7149 105.114 38.9712 104.182 38.9712C103.25 38.9712 102.859 39.4339 102.859 40.4309C102.862 40.7545 102.942 41.0728 103.091 41.3599C103.241 41.6469 103.456 41.8948 103.719 42.0834C104.234 42.4183 104.79 42.6866 105.373 42.8821C106.763 43.4826 107.496 43.8131 107.579 43.8131C108.277 44.1607 108.871 44.6872 109.299 45.3388C109.811 46.2082 110.06 47.2067 110.016 48.2142Z" fill="#10347F"></path><path _ngcontent-pgd-c64="" d="M123.077 36.3934L118.832 46.5507V53.1276H114.459V46.5507L110.219 36.3934H115.055L116.643 42.436L118.368 36.3934H123.077Z" fill="#10347F"></path><path _ngcontent-pgd-c64="" d="M148.79 48.2803C148.79 51.5357 147.004 53.1276 143.353 53.1276C141.429 53.1276 140.106 52.6649 139.312 51.734C138.584 51.0014 138.253 49.8722 138.253 48.2803V47.4155H142.295V48.8807C142.295 49.74 142.626 50.2027 143.353 50.2027C143.518 50.2245 143.686 50.1909 143.83 50.1071C143.973 50.0234 144.085 49.8942 144.147 49.74C144.386 49.2239 144.477 48.6521 144.412 48.0875V36.0629H148.79V48.2803ZM160.717 52.7971H150.643V36.0629H160.519V39.6488H155.005V42.5517H160.171V45.9393H155.005V49.2442H160.7L160.717 52.7971ZM179.41 36.0629L176.559 52.7971H171.784L170.328 41.1085H170.262L168.806 52.7971H164.031L161.18 36.0629H165.426L166.749 48.082L168.343 36.0629H172.252L174.039 48.06H174.105L175.302 36.0408L179.41 36.0629ZM190.344 52.7971H180.27V36.0629H190.145V39.6488H184.631V42.5517H189.798V45.9393H184.631V49.2442H190.344V52.7971ZM201.543 52.7971H191.871V36.0629H196.244V49.2828H201.543V52.7971ZM212.35 52.7971H202.673V36.0629H207.051V49.2828H212.35V52.7971ZM223.549 52.7971H213.475V36.0629H223.351V39.6488H217.837V42.5517H223.003V45.9393H217.837V49.2442H223.533L223.549 52.7971ZM237.075 52.7971H232.432C232.168 52.5327 232.035 51.4035 232.035 49.2773C232.093 48.3993 231.98 47.5185 231.704 46.6829C231.601 46.4788 231.437 46.3118 231.234 46.2052C231.032 46.0986 230.801 46.0577 230.574 46.088H229.471V52.7971H225.099V36.0629H232.124C235.039 36.0629 236.496 37.5226 236.496 40.442C236.58 41.6459 236.183 42.8339 235.393 43.747C234.97 44.1785 234.403 44.4393 233.8 44.4796V44.5457C234.417 44.5955 235 44.8516 235.454 45.2728C236.116 45.8732 236.38 47.0024 236.38 48.6659C236.364 49.5309 236.408 50.396 236.513 51.2548C236.507 51.82 236.707 52.3682 237.075 52.7971ZM232.113 41.1085C232.113 39.8471 231.511 39.2467 230.32 39.2467H229.46V43.1631H230.453C231.567 43.1631 232.102 42.5021 232.102 41.1085H232.113ZM250.006 36.0629L245.76 46.2202V52.7971H241.382V46.2202L237.147 36.0629H241.983L243.571 42.122L245.297 36.0629H250.006Z" fill="#10347F"></path><path _ngcontent-pgd-c64="" fill-rule="evenodd" clip-rule="evenodd" d="M4.03626 56.5758H245.82L246.482 58.5092H3.37458L4.03626 56.5758ZM0 68H249.862L247.282 60.696H2.59159L0 68Z" fill="#D2AB66"></path><path _ngcontent-pgd-c64="" d="M113.263 65.0145L113.726 64.9484C113.78 65.1076 113.846 65.2623 113.924 65.4111C113.969 65.4805 114.027 65.5402 114.095 65.5866C114.164 65.633 114.24 65.6651 114.321 65.681C114.4 65.7388 114.489 65.7802 114.584 65.803C114.678 65.8257 114.777 65.8291 114.873 65.8132C115.059 65.8314 115.247 65.8088 115.424 65.7471C115.562 65.6973 115.679 65.6021 115.755 65.4772C115.797 65.44 115.831 65.3942 115.854 65.3429C115.877 65.2916 115.889 65.236 115.889 65.1797C115.889 65.1235 115.877 65.0678 115.854 65.0166C115.831 64.9653 115.797 64.9195 115.755 64.8823C115.676 64.7601 115.56 64.6657 115.424 64.6124C115.201 64.5818 114.98 64.5376 114.763 64.4802C114.513 64.407 114.268 64.3187 114.029 64.2158C113.85 64.1448 113.691 64.0314 113.566 63.8853C113.492 63.741 113.447 63.5839 113.434 63.4226C113.44 63.2074 113.509 62.9986 113.632 62.8222C113.757 62.6761 113.916 62.5627 114.095 62.4917C114.566 62.3156 115.085 62.3156 115.557 62.4917C115.659 62.5188 115.755 62.5692 115.835 62.6389C115.915 62.7086 115.978 62.7958 116.02 62.8938C116.139 63.0663 116.195 63.2743 116.18 63.4832H115.716C115.702 63.2725 115.607 63.0754 115.452 62.9324C115.262 62.7888 115.027 62.7184 114.79 62.7341C114.671 62.7202 114.551 62.7306 114.436 62.7647C114.321 62.7988 114.215 62.8558 114.123 62.9324C114.063 62.9817 114.015 63.043 113.981 63.1123C113.947 63.1816 113.927 63.2573 113.924 63.3345C113.928 63.4552 113.975 63.5706 114.057 63.6595C114.274 63.8105 114.527 63.9035 114.79 63.9294C115.082 63.9998 115.369 64.0881 115.65 64.1938C115.874 64.2599 116.068 64.3997 116.202 64.5904C116.286 64.762 116.331 64.9501 116.334 65.1412C116.343 65.3437 116.272 65.5416 116.136 65.692C116.035 65.892 115.872 66.0542 115.672 66.1547C115.437 66.2306 115.192 66.2751 114.944 66.2869C114.651 66.2857 114.359 66.2412 114.079 66.1547C113.843 66.0561 113.637 65.8964 113.483 65.692C113.349 65.4908 113.272 65.2563 113.263 65.0145ZM117.906 62.4256H118.385V66.2373H117.922L117.906 62.4256ZM120.111 66.2098V62.4256H120.663L122.648 65.4111V62.4256H123.111V66.2373H122.559L120.574 63.2463V66.2373L120.111 66.2098ZM127.467 64.8823L127.93 65.0145C127.872 65.3839 127.675 65.7171 127.379 65.9454C127.091 66.1611 126.74 66.2771 126.381 66.2759C126.028 66.3194 125.672 66.2246 125.388 66.0115C125.106 65.8488 124.894 65.588 124.793 65.2789C124.657 64.9642 124.589 64.6245 124.594 64.2819C124.589 63.9179 124.657 63.5566 124.793 63.2188C124.945 62.9372 125.177 62.7061 125.459 62.5535C125.741 62.401 126.061 62.3336 126.381 62.3595C126.713 62.3355 127.043 62.4291 127.312 62.6239C127.592 62.8099 127.789 63.0957 127.864 63.4226L127.401 63.5493C127.348 63.3066 127.204 63.0935 126.998 62.9544C126.829 62.8211 126.618 62.7509 126.403 62.7561C126.145 62.7417 125.889 62.8113 125.675 62.9544C125.486 63.1237 125.329 63.3251 125.212 63.5493C125.154 63.789 125.132 64.0358 125.145 64.2819C125.119 64.5766 125.165 64.8732 125.278 65.1467C125.346 65.3687 125.486 65.5622 125.675 65.6975C125.873 65.823 126.102 65.8916 126.336 65.8958C126.601 65.8776 126.855 65.7861 127.07 65.6314C127.274 65.429 127.407 65.1663 127.45 64.8823H127.467ZM129.386 66.2098V62.4256H132.17V62.8938H129.915V63.9955H131.972V64.4581H129.915V65.7251H132.236V66.2373L129.386 66.2098ZM136.741 66.2098H136.278V63.2188C136.212 63.3565 136.014 63.4226 135.881 63.5493C135.705 63.6531 135.52 63.7433 135.33 63.8192V63.3565C135.593 63.2376 135.838 63.0818 136.058 62.8938C136.226 62.7718 136.362 62.6112 136.455 62.4256H136.719L136.741 66.2098ZM138.864 65.345L139.261 65.2789C139.327 65.4772 139.394 65.681 139.526 65.7471C139.658 65.8132 139.73 65.8793 139.928 65.8793C140.062 65.8903 140.197 65.8675 140.32 65.8132C140.392 65.7471 140.518 65.6149 140.585 65.5433C140.67 65.404 140.716 65.244 140.717 65.0806C140.776 64.8863 140.801 64.683 140.789 64.4802V64.4141C140.564 64.6802 140.264 64.8722 139.928 64.9649C139.772 64.9693 139.617 64.9349 139.478 64.8647C139.338 64.7945 139.218 64.6908 139.129 64.5628C139.009 64.455 138.917 64.3204 138.86 64.1701C138.802 64.0198 138.781 63.858 138.798 63.698C138.778 63.5287 138.797 63.357 138.855 63.1964C138.912 63.0358 139.006 62.8908 139.129 62.7726C139.232 62.649 139.366 62.5538 139.516 62.496C139.667 62.4381 139.829 62.4196 139.989 62.4421C140.227 62.444 140.46 62.5133 140.66 62.642C140.86 62.7708 141.019 62.9536 141.12 63.1692C141.206 63.517 141.25 63.8739 141.252 64.2323C141.286 64.6355 141.241 65.0415 141.12 65.4276C141.003 65.674 140.847 65.8993 140.656 66.0941C140.438 66.2282 140.185 66.297 139.928 66.2924C139.794 66.305 139.659 66.2878 139.532 66.2421C139.405 66.1964 139.29 66.1233 139.195 66.028C139.086 65.9513 138.997 65.8489 138.936 65.7298C138.876 65.6107 138.845 65.4786 138.848 65.345H138.864ZM140.717 63.6925C140.732 63.5755 140.722 63.4566 140.687 63.3437C140.653 63.2308 140.596 63.1263 140.518 63.037C140.465 62.9631 140.396 62.901 140.318 62.8546C140.239 62.8081 140.152 62.7784 140.061 62.7671C139.836 62.7874 139.624 62.8824 139.46 63.037C139.326 63.2289 139.256 63.4585 139.261 63.6925C139.253 63.8007 139.266 63.9096 139.3 64.0127C139.334 64.1158 139.388 64.2111 139.46 64.2929C139.534 64.3607 139.621 64.4132 139.716 64.4472C139.81 64.4812 139.911 64.4962 140.011 64.4912C140.112 64.504 140.215 64.4927 140.311 64.4582C140.407 64.4238 140.493 64.3671 140.563 64.2929C140.626 64.2057 140.671 64.1065 140.695 64.0014C140.718 63.8963 140.72 63.7874 140.7 63.6815L140.717 63.6925ZM144.025 66.2208V65.2899H142.371V64.8933L144.092 62.4366H144.494V64.8933H145.045V65.2899H144.494V66.2373L144.025 66.2208ZM144.025 64.8933V63.1527L142.834 64.8823L144.025 64.8933ZM148.073 66.2208H147.61V63.2298C147.47 63.3589 147.314 63.4699 147.146 63.5603C146.996 63.6597 146.839 63.7498 146.678 63.8302V63.3675C146.913 63.2322 147.136 63.0774 147.345 62.9048C147.513 62.7828 147.649 62.6222 147.742 62.4366H148.073V66.2208Z" fill="#1D1D1D"></path></g><defs _ngcontent-pgd-c64=""><clipPath _ngcontent-pgd-c64="" id="clip0_57_548"><rect _ngcontent-pgd-c64="" width="250" height="68" fill="white"></rect></clipPath></defs></svg>